<?xml version="1.0" encoding="utf-8"?>
<!-- Generator: Adobe Illustrator 27.0.1, SVG Export Plug-In . SVG Version: 6.00 Build 0)  -->
<svg version="1.1" id="Слой_1" xmlns="http://www.w3.org/2000/svg" xmlns:xlink="http://www.w3.org/1999/xlink" x="0px" y="0px"
	 width="500px" height="219.9px" viewBox="0 0 500 219.9" style="enable-background:new 0 0 500 219.9;" xml:space="preserve">
<path d="M345.4,172.9c-3.3-1-6.8-1.5-10.2-2.6c-1,0.8-2,1.6-2.4,2.9c-0.5,2,0.6,4.1,2.4,5c2.9,1.6,6.6,1.2,9.6,0
	c1.4-0.7,3.1-1.8,3.2-3.6C347.5,173.6,346.4,173.3,345.4,172.9z M345.4,172.9c-3.3-1-6.8-1.5-10.2-2.6c-1,0.8-2,1.6-2.4,2.9
	c-0.5,2,0.6,4.1,2.4,5c2.9,1.6,6.6,1.2,9.6,0c1.4-0.7,3.1-1.8,3.2-3.6C347.5,173.6,346.4,173.3,345.4,172.9z M124.8,67.7
	c-3.2,5.5-6,11.3-8.7,17.1c2.8,0.6,5.7,1.2,8.5,1.8C124.5,80.3,124.6,74,124.8,67.7z M345.4,172.9c-3.3-1-6.8-1.5-10.2-2.6
	c-1,0.8-2,1.6-2.4,2.9c-0.5,2,0.6,4.1,2.4,5c2.9,1.6,6.6,1.2,9.6,0c1.4-0.7,3.1-1.8,3.2-3.6C347.5,173.6,346.4,173.3,345.4,172.9z
	 M345.4,172.9c-3.3-1-6.8-1.5-10.2-2.6c-1,0.8-2,1.6-2.4,2.9c-0.5,2,0.6,4.1,2.4,5c2.9,1.6,6.6,1.2,9.6,0c1.4-0.7,3.1-1.8,3.2-3.6
	C347.5,173.6,346.4,173.3,345.4,172.9z M124.8,67.7c-3.2,5.5-6,11.3-8.7,17.1c2.8,0.6,5.7,1.2,8.5,1.8
	C124.5,80.3,124.6,74,124.8,67.7z M124.8,67.7c-3.2,5.5-6,11.3-8.7,17.1c2.8,0.6,5.7,1.2,8.5,1.8C124.5,80.3,124.6,74,124.8,67.7z
	 M193.3,92.6c-0.2-0.5-0.6-1.3-1.5-2.1c-0.2-0.2-0.8-0.7-1.8-1c-0.5-0.2-1-0.3-2.1-0.3c-1.6-0.1-2.9,0.1-3.1,0.1
	c-1.9,0.2-4,0.6-6.5,0.9l1.3,10.9l8.3-1.1c0.7,0,1.8-0.2,2.9-0.9c0.5-0.3,1.4-0.9,2.1-2c0.3-0.5,0.6-1.3,0.7-2.3
	C193.7,94.6,193.7,93.7,193.3,92.6z M345.4,172.9c-3.3-1-6.8-1.5-10.2-2.6c-1,0.8-2,1.6-2.4,2.9c-0.5,2,0.6,4.1,2.4,5
	c2.9,1.6,6.6,1.2,9.6,0c1.4-0.7,3.1-1.8,3.2-3.6C347.5,173.6,346.4,173.3,345.4,172.9z M345.4,172.9c-3.3-1-6.8-1.5-10.2-2.6
	c-1,0.8-2,1.6-2.4,2.9c-0.5,2,0.6,4.1,2.4,5c2.9,1.6,6.6,1.2,9.6,0c1.4-0.7,3.1-1.8,3.2-3.6C347.5,173.6,346.4,173.3,345.4,172.9z
	 M124.8,67.7c-3.2,5.5-6,11.3-8.7,17.1c2.8,0.6,5.7,1.2,8.5,1.8C124.5,80.3,124.6,74,124.8,67.7z M193.3,92.6
	c-0.2-0.5-0.6-1.3-1.5-2.1c-0.2-0.2-0.8-0.7-1.8-1c-0.5-0.2-1-0.3-2.1-0.3c-1.6-0.1-2.9,0.1-3.1,0.1c-1.9,0.2-4,0.6-6.5,0.9
	l1.3,10.9l8.3-1.1c0.7,0,1.8-0.2,2.9-0.9c0.5-0.3,1.4-0.9,2.1-2c0.3-0.5,0.6-1.3,0.7-2.3C193.7,94.6,193.7,93.7,193.3,92.6z
	 M124.8,67.7c-3.2,5.5-6,11.3-8.7,17.1c2.8,0.6,5.7,1.2,8.5,1.8C124.5,80.3,124.6,74,124.8,67.7z M193.3,92.6
	c-0.2-0.5-0.6-1.3-1.5-2.1c-0.2-0.2-0.8-0.7-1.8-1c-0.5-0.2-1-0.3-2.1-0.3c-1.6-0.1-2.9,0.1-3.1,0.1c-1.9,0.2-4,0.6-6.5,0.9
	l1.3,10.9l8.3-1.1c0.7,0,1.8-0.2,2.9-0.9c0.5-0.3,1.4-0.9,2.1-2c0.3-0.5,0.6-1.3,0.7-2.3C193.7,94.6,193.7,93.7,193.3,92.6z
	 M327.1,71c-2-5.5-6.5-10-11.9-12.1c-3.9-1.4-8.1-2-12.1-1.2c-4.7,0.9-9.1,3.5-12.1,7.2c-3.5,4.3-5.1,9.9-4.9,15.3
	c0.2,5.6,2.8,11.2,7,14.9c5.7,4.9,14.1,6.6,21.2,4.1C325.4,95.5,331.2,81.8,327.1,71z M312.4,94.4c-4.7,3.9-12.5,2.6-15.9-2.4
	c-4-6-1-16,6.5-17.5c4.2-0.9,8.9,0.5,11.6,4C318.1,83.3,316.9,90.7,312.4,94.4z M345.4,172.9c-3.3-1-6.8-1.5-10.2-2.6
	c-1,0.8-2,1.6-2.4,2.9c-0.5,2,0.6,4.1,2.4,5c2.9,1.6,6.6,1.2,9.6,0c1.4-0.7,3.1-1.8,3.2-3.6C347.5,173.6,346.4,173.3,345.4,172.9z
	 M393.9,105c-2.8-2.4-6.9-3.4-10.5-2.4c-4.4,1.2-8.1,4.9-8.9,9.4c-1.3,6.6,3.9,13.8,10.6,14.6c5.8,0.8,11.8-3.4,13.2-9.1
	C399.5,112.9,397.4,108,393.9,105z M393.9,105c-2.8-2.4-6.9-3.4-10.5-2.4c-4.4,1.2-8.1,4.9-8.9,9.4c-1.3,6.6,3.9,13.8,10.6,14.6
	c5.8,0.8,11.8-3.4,13.2-9.1C399.5,112.9,397.4,108,393.9,105z M345.4,172.9c-3.3-1-6.8-1.5-10.2-2.6c-1,0.8-2,1.6-2.4,2.9
	c-0.5,2,0.6,4.1,2.4,5c2.9,1.6,6.6,1.2,9.6,0c1.4-0.7,3.1-1.8,3.2-3.6C347.5,173.6,346.4,173.3,345.4,172.9z M124.8,67.7
	c-3.2,5.5-6,11.3-8.7,17.1c2.8,0.6,5.7,1.2,8.5,1.8C124.5,80.3,124.6,74,124.8,67.7z M193.3,92.6c-0.2-0.5-0.6-1.3-1.5-2.1
	c-0.2-0.2-0.8-0.7-1.8-1c-0.5-0.2-1-0.3-2.1-0.3c-1.6-0.1-2.9,0.1-3.1,0.1c-1.9,0.2-4,0.6-6.5,0.9l1.3,10.9l8.3-1.1
	c0.7,0,1.8-0.2,2.9-0.9c0.5-0.3,1.4-0.9,2.1-2c0.3-0.5,0.6-1.3,0.7-2.3C193.7,94.6,193.7,93.7,193.3,92.6z M327.1,71
	c-2-5.5-6.5-10-11.9-12.1c-3.9-1.4-8.1-2-12.1-1.2c-4.7,0.9-9.1,3.5-12.1,7.2c-3.5,4.3-5.1,9.9-4.9,15.3c0.2,5.6,2.8,11.2,7,14.9
	c5.7,4.9,14.1,6.6,21.2,4.1C325.4,95.5,331.2,81.8,327.1,71z M312.4,94.4c-4.7,3.9-12.5,2.6-15.9-2.4c-4-6-1-16,6.5-17.5
	c4.2-0.9,8.9,0.5,11.6,4C318.1,83.3,316.9,90.7,312.4,94.4z M499.6,71.8c-0.4-9.1-1.7-18.1-2.9-27.1c-15.2,2.3-30.3,4.5-45.5,6.7
	c0.7,4.4,1.5,8.8,2.1,13.2c-2.5-2.6-5.2-5-7.8-7.5c-11.2,1.7-22.4,3.3-33.7,5c1,8.5,2.2,16.9,2.5,25.5c-6.2-5.4-14.1-8.7-22.3-9.5
	c-9.5-1.1-19.2,1.2-27.6,5.8c-0.3-10.4-3.9-20.6-9.9-29c-10.1-14.3-26.8-23.6-44.2-25.1c-11.1-1-22.6,1.2-32.5,6.4
	c-2.9-12.2-6-24.3-9.6-36.3c-4.1,1.4-8.2,2.6-12.3,3.9c-29.7,9.3-59.2,19.3-89.3,27.4c3.3,11.7,6.5,23.4,9.3,35.2
	c-7.8,1-15.4,2.7-23.2,3.9c-0.3-7-0.4-14-0.5-20.9c-12.8-4.3-25.7-8.6-38.6-12.7c-9.6,13.1-18.6,26.6-26.5,40.8
	c-10.4-9.7-24.9-14.6-39-14c-11.6,0.4-23,4.7-31.8,12.3C8.4,83,2.6,92.8,0.7,103.3c-1.6,8.7-0.6,17.8,3.2,25.8
	c5.3,11.2,15.6,19.7,27.3,23.6c10.3,3.6,21.6,3.7,32.2,1c-4,8.1-7.2,16.8-7.4,25.9c-0.1,7.3,1.6,15,6.8,20.4
	c4.7,4.9,11.8,6.8,18.3,6.3c9.5-0.7,18.4-5.3,25.6-11.3c2.5,6.1,8.1,11.2,14.8,12c4.7,0.8,9.3-0.8,13.6-2.6c0.9-0.2,1.8-1,2.8-0.6
	c3.7,1.6,7.8,1.8,11.8,1c1,4.9,3.5,9.7,7.7,12.5c4.7,3.2,11,3.3,16.2,1.4c6.3-2.3,11.2-7.5,14.4-13.3c8.8,1,18.1-1.1,25.6-5.9
	c4.1,3.6,9.4,5.5,14.7,6c9,0.9,18.3-1.3,25.8-6.3c3.8,4.6,9.8,7.4,15.8,6.8c4.7-0.4,8.9-2.6,12.5-5.5c3.9,3.3,8.9,4.9,13.9,5.2
	c7.3,0.6,14.8-1.6,20.5-6.2c6.1,5.2,14.6,6.7,22.4,6c8.9-0.8,18-4.4,24-11.3c3.5-4.1,5.2-9.5,4.8-14.8c11.3,0.8,23.3,3.6,31.6,11.8
	c1.6,1.6,3.3,3.1,4.9,4.8c3.7-4.1,7.9-7.8,10.7-12.6c2.7-4.5,4.1-9.9,3-15.1c-1-5.2-4.3-9.7-8.5-12.8c4.3-3,8-6.8,11.1-11.1
	c11.3,1.2,22.6,2.4,33.8,3.6c0.6-3.8,1.2-7.6,1.7-11.5c1,1.8,1.9,3.6,2.9,5.4c5.3,0.6,10.6,1.1,16,1.4c7.1,0.3,14.1,1.2,21.2,1.9
	c0.6-6.3,1.5-12.6,2-18.9C499.9,108.2,500.5,90,499.6,71.8z M299.6,33.8c17.8-2.6,36.7,5.2,47.5,19.7c5.2,7,8.3,15.5,8.6,24.3
	c0.2,9.4-2.5,18.9-7.8,26.6c-6,8.7-15.1,15-25.1,17.9c-16.3,5-35,1.1-47.8-10.1c-6.5-5.7-11.5-13.4-13.6-21.8
	c-2.9-11.2-1.3-23.4,4.1-33.5C272.2,44.3,285.5,35.7,299.6,33.8z M345.3,139c-4.4,1.4-8.6,3.6-12.2,6.5c-1.8-2.8-3.8-5.8-6.8-7.4
	c5.8-1.9,11.2-4.9,16.1-8.4C343,132.9,344,136,345.3,139z M302.8,141.3c-4.3,2.7-7.8,6.3-11.2,10c-0.5-1,0.3-1.8,0.8-2.5
	c1.8-2.5,3.3-5.3,4.4-8.2C298.7,140.9,300.8,141.1,302.8,141.3z M289.4,128.2c0.2,3.2-1.6,6-3.2,8.6c-2.8,0.5-6.1,1.1-8.7-0.5
	c-1.8-1.1-1.9-3.4-1.5-5.2c0.5-2.9,2.2-5.3,3.8-7.7c2.4-0.1,4.9,0,7.1,1.1C288.4,125.2,289.4,126.6,289.4,128.2z M262.8,6.4
	c2.9,10.2,5.3,20.5,7.8,30.9c-9.1,2.5-18.3,4.5-27.5,6.8c7.9,32.6,14.5,65.7,18.3,99.1c-2-3.5-6-5.5-10-5.5
	c-6.5-0.2-12.8,2-18.3,5.3c-3.6-30.9-8.8-61.7-17.3-91.6c-9.4,2.2-18.6,5-28,7.1c-2-9-4.4-17.8-6.8-26.7
	C208.3,24,235.4,14.8,262.8,6.4z M187.5,69.1c7.5-0.5,15.3,1.7,21.1,6.6c8.3,7,11,19.7,6.4,29.5c-1.6,3.2-4.1,6-7.1,7.9
	c5.6,9,11.9,17.6,17,26.9c-2-0.1-4.1,0.2-6-0.2c-5.8-3.9-13.3-2.3-19.4-0.1c-4.1-7.2-7.5-14.7-11.8-21.7c-2,0.2-3.9,0.5-5.9,0.7
	c0.6,7,1.8,13.9,2.5,20.9c-1.4,0.2-2.8,0.4-4.1,0.6c-5.6-3.7-12.8-2.8-19-1c-2.1-21.7-5-43.3-7.9-64.9
	C164.5,72.8,175.9,70,187.5,69.1z M119.2,42.3c8.2,2.7,16.4,5.3,24.5,8.1c0.3,20.9,1.8,41.9,6.3,62.4l-23.3-3.2l-0.8-4l-0.9-4.4
	c-4.8-0.8-9.7-1.6-14.5-2.4c-1.5,4.2-2.6,8.5-4.2,12.7c-8.1-1.1-16.2-1.9-24.3-3.1C91.7,84.9,104.4,62.9,119.2,42.3z M30.5,134.1
	c-6.8-3.5-12.7-9.1-15.8-16.2c-3.3-7.1-3.7-15.3-1.5-22.8c2.7-9.4,9.2-17.4,17.6-22.3c15.5-9.1,36.6-6.7,50.1,4.9
	c-3.2,6-6.4,12-9.6,18c-5-4.5-11.3-8-18.1-8.3c-5.6,0-11.6,2.2-15,6.8c-4.3,5.6-3.7,14.3,1.2,19.3c3.1,3.3,7.8,5,12.3,4.9
	c7.4,0.2,14.6-3.8,18.9-9.6c4.9,4.5,9.7,8.9,14.6,13.4C72.8,138.3,48.5,143.2,30.5,134.1z M61.3,108.7c-1.8,2.6-4.4,4.8-7.5,5.7
	c-2.5,0.7-5.4,0.8-7.6-0.5c-2.3-1.4-2.9-4.8-1.2-6.9c1.8-2,4.7-2.7,7.3-2.5C55.6,104.9,58.7,106.6,61.3,108.7z M105.5,178.5
	c-5.9,6.4-13.7,11.3-22.3,12.9c-4.9,0.9-10.6,0.3-14.3-3.4c-3.9-3.8-4.9-9.6-4.8-14.8c0.3-8.3,3.3-16.3,7-23.6
	c4.7-8.8,10.9-16.9,18.6-23.3c6.9-5.7,15.3-10.2,24.4-10.2c4.1,0,8.7,0.8,11.3,4.3c2.6,3.7,1.9,8.7,0.5,12.7
	c-1.6,4.1-3.8,8.2-7.5,10.8c-1.1-3.4-2.6-7.1-5.6-9.3c-2.4-1.7-5.7-1.3-8.1,0.1c-4.7,2.6-8.2,6.9-11.3,11.3
	c-3.8,5.7-7.1,11.8-8.9,18.4c-0.5,2.2-1.4,5.1,0.5,6.9c2.4,2,5.8,1.7,8.6,1.1c8-1.9,14.8-7.1,20-13.3
	C113.8,166.4,110.2,173.2,105.5,178.5z M111.4,155.6c-1.6,1.7-2.9,3.7-4.6,5.2c-3.7,3.4-8.1,6.2-12.9,7.6c2-5,4.8-9.7,8.1-14
	c1.9-2.4,4-4.8,6.6-6.3C109.9,150.4,110.7,153,111.4,155.6z M126.4,183.2c0,3,0.3,6,1.8,8.6c-3,1-6.4,1-9.1-0.6
	c-4.2-2.5-6.3-7.7-6.1-12.4c0.3-4.6,1.9-9,3.4-13.3c4.1-11,9.4-21.5,14-32.3c1.6-3.7,3.1-7.5,4.1-11.4c0.4-1.4,0.4-2.8,0.2-4.3
	c4.2-0.3,8.7,1,11.6,4.1c1.3,1.3,1.9,3.2,1.5,5c-0.7,3.2-2.2,6-3.5,8.9c-4,8-8.4,15.8-11.9,24C129.1,167,126.1,174.9,126.4,183.2z
	 M253.3,182.6c-3.9,4.5-9.7,6.9-15.4,7.9c-5.8,0.9-12.3,0.8-17.4-2.5c-3.2-2-5-5.8-4.7-9.6c-2.1,5.5-7.4,8.9-12.8,10.7
	c-6.4,2.1-13.5,2.6-19.9,0.2c-1.6,5.9-5.2,11.6-10.8,14.4c-3.3,1.7-7.7,2.1-10.9-0.2c-2.9-2.2-3.9-6-4-9.5c0-3.7,0.4-7.3,1.1-10.9
	c-3.3,3.5-7.4,6.9-12.4,7.3c-3.4,0.4-6.9-1.1-9-3.9c-2.9-3.8-3.4-8.9-2.8-13.4c1-8.6,6-16.3,12.5-21.8c5.6-4.8,12.5-8.3,19.8-9.6
	c3.2-0.4,6.6-0.6,9.6,0.7c1.9,0.8,3.5,2.5,3.7,4.6c0.4,2.9-1.1,5.6-2.7,7.9c-4.8-1.5-10-0.9-14.4,1.4c-5.6,3-10.2,7.9-12.5,13.8
	c-0.5,1.5-1.2,3.6,0.2,5c2.9,0.6,5.2-1.7,7.2-3.4c4-4.1,7.6-9,8.9-14.7c3.9-1.4,8.8,0.6,10.2,4.6c0.8,2-0.1,4-0.9,5.8
	c-2.4,5.3-5.1,10.7-5.3,16.6c0,2.4,0.5,5.4,3,6.4c3,1.1,6.2-0.2,9-1.2c-3.2-1.7-6.1-4.4-6.6-8.1c-1-4.6,2-8.7,5.3-11.6
	c3.4,7.4,13,10.7,20.5,8c1.3-0.5,3.4-2.4,2-3.8c-2.3-1.4-5.2-1.6-7.8-2.4c-3.8-0.9-7.8-1.8-10.6-4.7c-2.3-2.5-1.7-6.3-0.6-9.2
	c2.7-6.6,8.8-11.1,15.2-13.8c4.3-1.7,9-2.9,13.6-2c3,0.5,5.3,3.2,5.7,6.2c0.7,5.1-0.9,10.3-3.5,14.7c-0.7-2-1.5-4.1-3.3-5.4
	c-3.5-2.7-8.9-1.5-11.6,1.7c-1.2,1.3-0.3,3.5,1.2,4.1c4,2,8.9,2.1,12.1,5.4c2,2,2.7,5,2.1,7.7c1.2-2.5,2.9-4.8,5-6.6
	c3.3,7.1,12.1,10.3,19.4,8.4c1.5-0.5,3.2-1.3,3.6-2.9c0.2-1.2-1.3-1.7-2.2-2.1c-4.8-1.5-10.1-1.9-14.5-4.5c-2-1.1-3.7-3-3.8-5.4
	c-0.2-3.9,1.5-7.8,4-10.7c4.4-5.2,10.5-8.8,17.1-10.3c3.3-0.7,6.9-1.2,10.1,0.1c2.7,1.2,4.2,4.1,4.3,7c0.2,4.7-1.2,9.4-3.6,13.4
	c-0.7-2.2-1.8-4.5-3.9-5.8c-2.8-1.7-6.5-1.2-9.1,0.5c-1.1,0.8-2.4,1.8-2.5,3.2c0.2,2.2,2.5,3,4.3,3.5c3.7,1.2,8.2,2,10.6,5.5
	C257.4,173.6,256.3,179.1,253.3,182.6z M312,186.4c-4.2,3.5-9.8,5.1-15.3,4.6c-3.6-0.2-7.3-1.3-9.8-4.1c-2-2.1-2.8-5-3-7.8
	c-2.5,4.3-5.6,8.6-10.2,10.9c-3.5,1.8-8,1.9-11.2-0.5c-4.5-3.4-5.9-9.9-3.9-15.1c3.6-10.9,9.4-20.8,13.5-31.5c2.3-0.9,5-0.2,7.4,0.2
	c2.7,0.5,5.3,3.2,4.2,6.1c-3.2,8.9-8.7,16.7-11.8,25.6c-0.4,1.3-1,2.8-0.2,4c0.8,0.8,2,0.3,3,0c3.7-1.5,6.9-3.9,10-6.3
	c2.2-8.5,7-16.1,13.1-22.4c4.4-4.3,9.7-8.1,15.8-9.6c3.5-0.8,7.3-0.8,10.5,0.9c2.3,1.2,3.7,3.7,3.6,6.2c0.2,4.7-2.6,8.8-5.7,12.1
	c-1.1-2.3-2.3-4.8-4.9-5.8c-2.9-1-5.9,0.7-8.1,2.4c-4.4,3.6-7.8,8.5-9.6,13.9c-0.7,2.3-1,5.5,1.3,7.1c2.3,1.3,5.2,0.7,7.6-0.1
	c5.6-2,11-5.3,14.4-10.2C321.2,174.3,317.9,181.6,312,186.4z M410.5,166.2c-0.4,4.5-3.2,8.4-6.2,11.7c-7-6.6-16.3-10.1-25.6-11.9
	c-8.8-1.6-17.9-2-26.7-0.6c2.9,1,6,2.4,7.4,5.3c1.6,3.8,0.6,8.4-1.9,11.5c-3.1,3.9-7.7,6.3-12.5,7.6c-5.2,1.4-10.8,1.7-16.1,0.4
	c-3.3-0.9-6.7-2.6-8.4-5.6c-1.5-2.6-1.2-5.9,0.3-8.5c2-3.7,5.4-6.4,8.9-8.5c-1.5-1.6-2.5-3.7-2.2-5.9c0.5-6.3,5.1-11.3,10-14.7
	c4.9-3.3,10.8-5.5,16.8-5.6c2.8,0,6,0.7,7.8,3c1.9,2.4,1.6,5.8,0.1,8.3c-0.7,1.2-1.7,2.2-2.9,3c-1.2,0.9-2.4,1.6-3.6,2.2
	c-0.9-1.7-1.7-4.1-3.5-5.1c-1.8-0.9-3.8,0.4-5.1,1.7c-1.8,1.8-3.5,4.2-3.3,6.8c1.4-0.4,6.7-1.8,8.1-2.1c1.2-0.3,1.6-0.3,4.7-0.9
	c3-0.6,3.4-0.6,4.6-0.8c1.1-0.2,4.3-0.6,4.3-0.6c8.8-1.2,17.7-1.6,26.6-1.8c4.8-0.1,10,0.2,14.2,2.9
	C409.1,159.7,410.8,163,410.5,166.2z M417.5,124.7c-3.2,8-9.4,14.8-17.2,18.7c-7.4,3.8-16.3,4.8-24.3,2.5
	c-13-3.7-22.7-16.6-22.5-30.1c-0.1-8,3-15.9,8.2-21.9c5.3-6.1,12.7-10.2,20.6-11.7c6.8-1.2,14.1-0.6,20.3,2.5
	c7.5,3.6,13.2,10.5,15.7,18.3C420.7,110.1,420.2,117.9,417.5,124.7z M490.5,106.3c-0.5,7-1,14-1.9,21c-7.1-0.8-14.3-0.9-21.5-1.7
	c-4.8-9.5-10.5-18.5-17.1-26.8c-0.2,10.5-1.2,20.9-2.7,31.3c-7.5-0.8-14.9-1.6-22.4-2.4c2-21.1,2.2-42.3-0.2-63.4
	c6.3-0.9,12.6-1.9,18.9-2.8c9.1,8.3,16.1,18.4,23.8,28c-0.4-12-1.1-24.1-2.9-36c8.3-1.2,16.6-2.5,24.8-3.6
	C491.8,68.6,491.6,87.5,490.5,106.3z M393.9,105c-2.8-2.4-6.9-3.4-10.5-2.4c-4.4,1.2-8.1,4.9-8.9,9.4c-1.3,6.6,3.9,13.8,10.6,14.6
	c5.8,0.8,11.8-3.4,13.2-9.1C399.5,112.9,397.4,108,393.9,105z M345.4,172.9c-3.3-1-6.8-1.5-10.2-2.6c-1,0.8-2,1.6-2.4,2.9
	c-0.5,2,0.6,4.1,2.4,5c2.9,1.6,6.6,1.2,9.6,0c1.4-0.7,3.1-1.8,3.2-3.6C347.5,173.6,346.4,173.3,345.4,172.9z M293,95.1
	c5.7,4.9,14.1,6.6,21.2,4.1c11.2-3.7,16.9-17.5,12.9-28.2c-2-5.5-6.5-10-11.9-12.1c-3.9-1.4-8.1-2-12.1-1.2
	c-4.7,0.9-9.1,3.5-12.1,7.2c-3.5,4.3-5.1,9.9-4.9,15.3C286.2,85.9,288.7,91.4,293,95.1z M303,74.5c4.2-0.9,8.9,0.5,11.6,4
	c3.6,4.8,2.3,12.1-2.1,15.9c-4.7,3.9-12.5,2.6-15.9-2.4C292.5,86,295.5,76.1,303,74.5z M188.1,100.1c0.7,0,1.8-0.2,2.9-0.9
	c0.5-0.3,1.4-0.9,2.1-2c0.3-0.5,0.6-1.3,0.7-2.3c0-0.2,0-1.1-0.4-2.2c-0.2-0.5-0.6-1.3-1.5-2.1c-0.2-0.2-0.8-0.7-1.8-1
	c-0.5-0.2-1-0.3-2.1-0.3c-1.6-0.1-2.9,0.1-3.1,0.1c-1.9,0.2-4,0.6-6.5,0.9l1.3,10.9L188.1,100.1z M124.8,67.7
	c-3.2,5.5-6,11.3-8.7,17.1c2.8,0.6,5.7,1.2,8.5,1.8C124.5,80.3,124.6,74,124.8,67.7z M327.1,71c-2-5.5-6.5-10-11.9-12.1
	c-3.9-1.4-8.1-2-12.1-1.2c-4.7,0.9-9.1,3.5-12.1,7.2c-3.5,4.3-5.1,9.9-4.9,15.3c0.2,5.6,2.8,11.2,7,14.9c5.7,4.9,14.1,6.6,21.2,4.1
	C325.4,95.5,331.2,81.8,327.1,71z M312.4,94.4c-4.7,3.9-12.5,2.6-15.9-2.4c-4-6-1-16,6.5-17.5c4.2-0.9,8.9,0.5,11.6,4
	C318.1,83.3,316.9,90.7,312.4,94.4z M193.3,92.6c-0.2-0.5-0.6-1.3-1.5-2.1c-0.2-0.2-0.8-0.7-1.8-1c-0.5-0.2-1-0.3-2.1-0.3
	c-1.6-0.1-2.9,0.1-3.1,0.1c-1.9,0.2-4,0.6-6.5,0.9l1.3,10.9l8.3-1.1c0.7,0,1.8-0.2,2.9-0.9c0.5-0.3,1.4-0.9,2.1-2
	c0.3-0.5,0.6-1.3,0.7-2.3C193.7,94.6,193.7,93.7,193.3,92.6z M124.8,67.7c-3.2,5.5-6,11.3-8.7,17.1c2.8,0.6,5.7,1.2,8.5,1.8
	C124.5,80.3,124.6,74,124.8,67.7z M345.4,172.9c-3.3-1-6.8-1.5-10.2-2.6c-1,0.8-2,1.6-2.4,2.9c-0.5,2,0.6,4.1,2.4,5
	c2.9,1.6,6.6,1.2,9.6,0c1.4-0.7,3.1-1.8,3.2-3.6C347.5,173.6,346.4,173.3,345.4,172.9z M345.4,172.9c-3.3-1-6.8-1.5-10.2-2.6
	c-1,0.8-2,1.6-2.4,2.9c-0.5,2,0.6,4.1,2.4,5c2.9,1.6,6.6,1.2,9.6,0c1.4-0.7,3.1-1.8,3.2-3.6C347.5,173.6,346.4,173.3,345.4,172.9z
	 M327.1,71c-2-5.5-6.5-10-11.9-12.1c-3.9-1.4-8.1-2-12.1-1.2c-4.7,0.9-9.1,3.5-12.1,7.2c-3.5,4.3-5.1,9.9-4.9,15.3
	c0.2,5.6,2.8,11.2,7,14.9c5.7,4.9,14.1,6.6,21.2,4.1C325.4,95.5,331.2,81.8,327.1,71z M312.4,94.4c-4.7,3.9-12.5,2.6-15.9-2.4
	c-4-6-1-16,6.5-17.5c4.2-0.9,8.9,0.5,11.6,4C318.1,83.3,316.9,90.7,312.4,94.4z M193.3,92.6c-0.2-0.5-0.6-1.3-1.5-2.1
	c-0.2-0.2-0.8-0.7-1.8-1c-0.5-0.2-1-0.3-2.1-0.3c-1.6-0.1-2.9,0.1-3.1,0.1c-1.9,0.2-4,0.6-6.5,0.9l1.3,10.9l8.3-1.1
	c0.7,0,1.8-0.2,2.9-0.9c0.5-0.3,1.4-0.9,2.1-2c0.3-0.5,0.6-1.3,0.7-2.3C193.7,94.6,193.7,93.7,193.3,92.6z M124.8,67.7
	c-3.2,5.5-6,11.3-8.7,17.1c2.8,0.6,5.7,1.2,8.5,1.8C124.5,80.3,124.6,74,124.8,67.7z M193.3,92.6c-0.2-0.5-0.6-1.3-1.5-2.1
	c-0.2-0.2-0.8-0.7-1.8-1c-0.5-0.2-1-0.3-2.1-0.3c-1.6-0.1-2.9,0.1-3.1,0.1c-1.9,0.2-4,0.6-6.5,0.9l1.3,10.9l8.3-1.1
	c0.7,0,1.8-0.2,2.9-0.9c0.5-0.3,1.4-0.9,2.1-2c0.3-0.5,0.6-1.3,0.7-2.3C193.7,94.6,193.7,93.7,193.3,92.6z M124.8,67.7
	c-3.2,5.5-6,11.3-8.7,17.1c2.8,0.6,5.7,1.2,8.5,1.8C124.5,80.3,124.6,74,124.8,67.7z M345.4,172.9c-3.3-1-6.8-1.5-10.2-2.6
	c-1,0.8-2,1.6-2.4,2.9c-0.5,2,0.6,4.1,2.4,5c2.9,1.6,6.6,1.2,9.6,0c1.4-0.7,3.1-1.8,3.2-3.6C347.5,173.6,346.4,173.3,345.4,172.9z
	 M345.4,172.9c-3.3-1-6.8-1.5-10.2-2.6c-1,0.8-2,1.6-2.4,2.9c-0.5,2,0.6,4.1,2.4,5c2.9,1.6,6.6,1.2,9.6,0c1.4-0.7,3.1-1.8,3.2-3.6
	C347.5,173.6,346.4,173.3,345.4,172.9z M193.3,92.6c-0.2-0.5-0.6-1.3-1.5-2.1c-0.2-0.2-0.8-0.7-1.8-1c-0.5-0.2-1-0.3-2.1-0.3
	c-1.6-0.1-2.9,0.1-3.1,0.1c-1.9,0.2-4,0.6-6.5,0.9l1.3,10.9l8.3-1.1c0.7,0,1.8-0.2,2.9-0.9c0.5-0.3,1.4-0.9,2.1-2
	c0.3-0.5,0.6-1.3,0.7-2.3C193.7,94.6,193.7,93.7,193.3,92.6z M124.8,67.7c-3.2,5.5-6,11.3-8.7,17.1c2.8,0.6,5.7,1.2,8.5,1.8
	C124.5,80.3,124.6,74,124.8,67.7z M345.4,172.9c-3.3-1-6.8-1.5-10.2-2.6c-1,0.8-2,1.6-2.4,2.9c-0.5,2,0.6,4.1,2.4,5
	c2.9,1.6,6.6,1.2,9.6,0c1.4-0.7,3.1-1.8,3.2-3.6C347.5,173.6,346.4,173.3,345.4,172.9z M345.4,172.9c-3.3-1-6.8-1.5-10.2-2.6
	c-1,0.8-2,1.6-2.4,2.9c-0.5,2,0.6,4.1,2.4,5c2.9,1.6,6.6,1.2,9.6,0c1.4-0.7,3.1-1.8,3.2-3.6C347.5,173.6,346.4,173.3,345.4,172.9z"
	/>
</svg>
